<svg width="28" height="35" viewBox="0 0 28 35" fill="none" xmlns="http://www.w3.org/2000/svg">
<path d="M5.98292 14.4987C5.99616 17.0976 5.95025 22.4279 3.59423 30.2495H24.3172C21.9634 22.457 21.917 17.114 21.9298 14.4987L24.8466 11.6178C25.0053 11.4611 25.1311 11.2751 25.217 11.0703C25.3029 10.8656 25.347 10.6461 25.347 10.4245V2.68563C25.347 1.75359 24.5821 0.998047 23.6384 0.998047H4.27433C3.33068 0.998047 2.56573 1.75359 2.56573 2.68563V10.4245C2.56573 10.8721 2.74577 11.3014 3.06613 11.6179L5.98292 14.4987ZM4.84386 3.24816H8.26105V6.62333H10.5392V3.24816H17.3736V6.62333H19.6517V3.24816H23.0689V10.1915L19.6563 13.5622C19.6422 16.4382 19.574 21.0394 21.3315 27.9994H6.57837C8.33758 21.0246 8.27095 16.4361 8.25628 13.5621L4.84386 10.1915V3.24816ZM15.9497 18.999H11.963V15.0613C11.963 13.9739 12.8555 13.0924 13.9564 13.0924C15.0573 13.0924 15.9497 13.9739 15.9497 15.0613V18.999ZM27.6252 33.3434V33.906C27.6252 34.3719 27.2426 34.7498 26.7709 34.7498H1.1419C0.67011 34.7498 0.287598 34.3719 0.287598 33.906V33.3434C0.287598 32.8774 0.67011 32.4996 1.1419 32.4996H26.7709C27.2426 32.4996 27.6252 32.8774 27.6252 33.3434Z" fill="white"/>
</svg>
