<svg width="28" height="32" viewBox="0 0 28 32" fill="none" xmlns="http://www.w3.org/2000/svg">
<path d="M13.9558 13.052C12.0715 13.052 10.538 14.566 10.538 16.4271C10.538 18.2883 12.0715 19.8022 13.9558 19.8022C15.8401 19.8022 17.3736 18.2883 17.3736 16.4271C17.3736 14.566 15.8401 13.052 13.9558 13.052ZM13.9558 17.8736C13.1467 17.8736 12.4913 17.2257 12.4913 16.4271C12.4913 15.6279 13.1473 14.9806 13.9558 14.9806C14.7643 14.9806 15.4203 15.6279 15.4203 16.4271C15.4203 17.2257 14.7649 17.8736 13.9558 17.8736ZM25.4717 16.4271C26.4206 15.2055 27.1016 13.979 27.4189 12.8109C27.7869 11.4482 27.6593 10.194 27.0491 9.18329C25.9367 7.34506 23.3659 6.5941 20.122 6.86712C18.7032 3.27745 16.4912 0.998047 13.9558 0.998047C11.4204 0.998047 9.20836 3.27685 7.79023 6.86652C4.54573 6.5935 1.97552 7.34446 0.864326 9.1839C0.252284 10.194 0.12475 11.4482 0.492707 12.8109C0.810017 13.979 1.49101 15.2055 2.43989 16.4271C1.49101 17.6488 0.810017 18.8753 0.492707 20.0433C0.12475 21.406 0.252284 22.6602 0.862495 23.671C1.82968 25.2681 3.88914 26.0528 6.54051 26.0528C6.92861 26.0528 7.3643 25.9835 7.77619 25.9498C9.19371 29.5611 11.4118 31.8562 13.9558 31.8562C16.4998 31.8562 18.7179 29.5611 20.1354 25.9498C20.5473 25.9835 20.983 26.0528 21.3711 26.0528C24.02 26.0528 26.0819 25.2681 27.0473 23.671C27.6593 22.6602 27.7875 21.406 27.4189 20.0433C27.1016 18.8753 26.4206 17.6488 25.4717 16.4271ZM2.3807 12.3119C2.14638 11.4531 2.2013 10.7328 2.54119 10.1723C3.1038 9.23995 4.5378 8.72705 6.5161 8.72705C6.7193 8.72705 6.93898 8.74332 7.15316 8.75417C6.8145 9.94269 6.55699 11.2355 6.38613 12.6042C5.40796 13.3516 4.51461 14.1278 3.74269 14.9216C3.08855 14.0236 2.60526 13.1388 2.3807 12.3119ZM6.17194 17.556C5.75395 17.1823 5.36524 16.8062 5.00461 16.4271C5.36463 16.048 5.75395 15.6719 6.17194 15.2983C6.15913 15.6725 6.14387 16.045 6.14387 16.4271C6.14387 16.8092 6.15852 17.1817 6.17194 17.556ZM2.53936 22.6819C2.20191 22.1214 2.14638 21.4012 2.38131 20.5423C2.60587 19.7154 3.08916 18.8307 3.74269 17.9327C4.51461 18.7264 5.40857 19.5027 6.38613 20.25C6.55699 21.6206 6.81511 22.914 7.15377 24.1037C4.85206 24.2212 3.16238 23.7107 2.53936 22.6819ZM19.3074 11.0667C18.796 10.7461 18.2761 10.4297 17.7318 10.1301C17.3394 9.91376 16.9471 9.71367 16.5553 9.51839C17.3327 9.28816 18.076 9.11579 18.7868 8.98802C18.9946 9.67212 19.1683 10.3658 19.3074 11.0667ZM13.9558 2.92668C15.4246 2.92668 16.9776 4.49551 18.1174 7.14376C16.7927 7.40352 15.391 7.81637 13.9564 8.37025C12.5212 7.81637 11.1195 7.40232 9.79416 7.14256C10.934 4.4949 12.487 2.92668 13.9558 2.92668ZM9.12476 8.98802C9.83565 9.11579 10.5789 9.28756 11.3557 9.51839C10.9639 9.71367 10.5716 9.91376 10.1798 10.1301C9.6355 10.4297 9.1156 10.7461 8.60425 11.0667C8.7433 10.3658 8.91702 9.67212 9.12476 8.98802ZM8.60425 21.7875C9.1156 22.1082 9.6355 22.4246 10.1798 22.7241C10.5899 22.9501 10.9963 23.1153 11.4057 23.3184C10.6125 23.5552 9.8503 23.7379 9.12537 23.8686C8.92766 23.2159 8.75009 22.5246 8.60425 21.7875ZM13.9558 29.9276C12.4815 29.9276 10.9218 28.3467 9.78074 25.6797C11.1122 25.4212 12.5127 25.0114 13.9558 24.4551C15.399 25.012 16.7994 25.4212 18.1309 25.6797C16.9898 28.3467 15.4301 29.9276 13.9558 29.9276ZM18.7868 23.868C18.0625 23.7379 17.301 23.5552 16.5077 23.3184C16.9165 23.1153 17.323 22.9501 17.7324 22.7247C18.2767 22.4252 18.7966 22.1088 19.308 21.7881C19.1615 22.524 18.9846 23.2147 18.7868 23.868ZM19.6832 19.2038C18.7826 19.8498 17.8166 20.4712 16.7823 21.0408C15.8243 21.5687 14.8803 22.0165 13.957 22.4029C13.0332 22.0165 12.0886 21.5687 11.1293 21.0408C10.095 20.4706 9.12903 19.8498 8.22836 19.2038C8.14354 18.3166 8.09655 17.3908 8.09655 16.4271C8.09655 15.4634 8.14354 14.5377 8.22836 13.6505C9.12903 13.0044 10.095 12.383 11.1293 11.8135C12.0867 11.2861 13.0326 10.8323 13.9552 10.4459C14.8784 10.8323 15.8243 11.2861 16.7823 11.8135C17.8166 12.3836 18.7826 13.0044 19.6832 13.6505C19.7675 14.5377 19.8151 15.4634 19.8151 16.4271C19.8151 17.3908 19.7675 18.3166 19.6832 19.2038ZM21.3961 8.72645C23.3738 8.72645 24.8084 9.23995 25.3729 10.1717C25.7103 10.7322 25.7658 11.4525 25.5309 12.3113C25.3063 13.1382 24.8231 14.023 24.1695 14.921C23.3976 14.1272 22.5036 13.351 21.5261 12.6036C21.3552 11.2343 21.0977 9.94209 20.759 8.75357C20.9732 8.74272 21.1929 8.72645 21.3961 8.72645ZM21.7397 15.2983C22.1577 15.6719 22.5464 16.048 22.907 16.4271C22.5464 16.8062 22.1577 17.1823 21.7397 17.556C21.7525 17.1817 21.7677 16.8092 21.7677 16.4271C21.7677 16.045 21.7531 15.6725 21.7397 15.2983ZM25.3704 22.6819C24.7504 23.7107 23.0608 24.2212 20.7578 24.1025C21.0971 22.9128 21.3546 21.62 21.5255 20.25C22.5036 19.5027 23.397 18.7264 24.1689 17.9327C24.8224 18.8307 25.3063 19.7154 25.5303 20.5423C25.7652 21.4012 25.7103 22.1214 25.3704 22.6819Z" fill="#FCFCFC"/>
</svg>
