<svg width="27" height="22" viewBox="0 0 27 22" fill="none" xmlns="http://www.w3.org/2000/svg">
<path d="M21.9947 7.39293L20.0819 5.50364L21.0595 4.53801C21.5654 4.03841 21.5654 3.22866 21.0595 2.72906L19.6861 1.37255C19.4332 1.12275 19.1018 0.998047 18.7704 0.998047C18.4389 0.998047 18.1075 1.12275 17.8546 1.37255L16.8769 2.33817L15.8997 1.37255C15.6468 1.12275 15.3153 0.998047 14.9839 0.998047C14.6525 0.998047 14.3211 1.12275 14.0682 1.37255L10.1636 5.22906C9.65774 5.72866 9.65774 6.53841 10.1636 7.03761L11.1412 8.00324L1.0991 17.9217C0.593269 18.4213 0.593269 19.2311 1.0991 19.7307L2.47253 21.0872C2.72544 21.337 3.05686 21.4617 3.38828 21.4617C3.7197 21.4617 4.05112 21.337 4.30404 21.0872L14.3462 11.1687L16.259 13.058V17.6247H17.5539C22.56 17.6247 26.6184 13.6163 26.6184 8.67191V7.39293H21.9947ZM18.7691 2.27702H18.7704L20.1438 3.63354L19.1661 4.59916L17.7923 3.24185L18.7691 2.27702ZM3.38828 20.1827L2.01485 18.8262L12.057 8.90772L13.4304 10.2642L3.38828 20.1827ZM17.5539 16.3458V12.5284L11.0793 6.13354L14.9827 2.27702H14.9839L21.4585 8.67191H25.3235C25.3235 12.9033 21.8381 16.3458 17.5539 16.3458Z" fill="#FCFCFC"/>
</svg>
