<svg width="28" height="27" viewBox="0 0 28 27" fill="none" xmlns="http://www.w3.org/2000/svg">
<path d="M25.8989 12.4259C26.7788 9.72282 24.8898 7.80197 23.8355 7.19891C23.9697 5.32968 22.536 3.51008 20.4847 3.25843C19.8842 1.90093 18.5193 0.996094 16.9826 0.996094C15.7469 0.996094 14.6579 1.58426 13.9563 2.48016C13.2548 1.58426 12.1658 0.996094 10.9301 0.996094C9.3934 0.996094 8.02853 1.90093 7.42751 3.25843C5.37619 3.51008 3.94248 5.32968 4.07666 7.19891C3.02235 7.80247 1.13385 9.72282 2.01328 12.4259C0.935356 13.2767 0.287598 14.5681 0.287598 15.9361C0.287598 17.5606 1.1625 19.0323 2.56204 19.8339C2.44746 22.2252 4.40581 24.2359 6.83051 24.1744C7.54611 25.5334 8.97077 26.4089 10.5517 26.4089C11.9538 26.4089 13.1905 25.724 13.9563 24.6836C14.7222 25.724 15.9589 26.4089 17.361 26.4089C18.9419 26.4089 20.3666 25.5334 21.0822 24.1744C23.5069 24.2359 25.4647 22.2248 25.3507 19.8339C26.7502 19.0323 27.6251 17.5606 27.6251 15.9361C27.6251 14.5681 26.9773 13.2767 25.8989 12.4259ZM13.1493 7.84912C13.1493 9.14409 12.2417 10.2256 11.0211 10.5314C10.8467 10.575 10.7281 10.7344 10.7281 10.9116V11.7147C10.7281 11.9663 10.9638 12.1569 11.2146 12.1063C11.9397 11.9603 12.5985 11.6392 13.1493 11.1935V22.2645C13.1493 23.6736 11.9844 24.8206 10.5517 24.8206C8.94916 24.8206 8.32904 23.7381 7.8833 22.4283C7.06468 22.5643 6.96418 22.5871 6.7687 22.5871C5.33599 22.5871 4.17113 21.44 4.17113 20.0309C4.17113 19.7227 4.21435 19.5772 4.35556 18.8908C3.07713 18.3696 1.90121 17.6892 1.90121 15.9361C1.90121 14.2554 3.05753 13.6057 4.05756 13.0404C3.42437 11.7643 3.41432 11.5911 3.41432 11.0967C3.41432 9.4136 4.51486 8.69142 5.8953 8.13403C5.76917 7.59301 5.68424 7.3096 5.68424 7.00186C5.68424 5.80369 6.6692 4.82787 7.96974 4.82787H7.99034L8.63006 4.84128C8.92705 3.70216 9.38536 2.5844 10.9301 2.5844C12.1533 2.5844 13.1493 3.56368 13.1493 4.76831V7.84912ZM23.5571 18.8908C23.6983 19.5772 23.7416 19.7227 23.7416 20.0309C23.7416 21.44 22.5767 22.5871 21.144 22.5871C20.949 22.5871 20.8485 22.5643 20.0294 22.4283C19.5837 23.7381 18.9635 24.8206 17.361 24.8206C15.9283 24.8206 14.7634 23.6736 14.7634 22.2645V11.1935C15.3142 11.6392 15.973 11.9603 16.6981 12.1063C16.9489 12.1569 17.1846 11.9663 17.1846 11.7147V10.9116C17.1846 10.7344 17.066 10.575 16.8916 10.5314C15.671 10.2256 14.7634 9.14409 14.7634 7.84912V4.76831C14.7634 3.56368 15.7594 2.5844 16.9826 2.5844C18.5273 2.5844 18.9856 3.70216 19.2821 4.84128L19.9219 4.82787H19.9425C21.243 4.82787 22.228 5.80369 22.228 7.00186C22.228 7.3096 22.1425 7.59351 22.0169 8.13403C23.3968 8.69092 24.4979 9.4136 24.4979 11.0967C24.4979 11.5911 24.4878 11.7643 23.8546 13.0404C24.8547 13.6057 26.011 14.2554 26.011 15.9361C26.011 17.6897 24.8356 18.3701 23.5571 18.8908Z" fill="#FCFCFC"/>
</svg>
