<svg width="28" height="30" viewBox="0 0 28 30" fill="none" xmlns="http://www.w3.org/2000/svg">
<path d="M27.3525 18.5611C26.6121 15.5008 24.5446 13.5431 24.2826 10.8091C24.0889 8.85698 25.4901 7.57998 25.3477 5.21723C25.1996 2.78136 23.4738 1.00367 21.2468 0.998047C19.0198 1.00367 17.2997 2.78136 17.1516 5.21723C17.0092 7.57998 18.4046 8.86261 18.2167 10.8091C17.9547 13.5431 15.8814 15.5064 15.1467 18.5611C14.4347 21.5033 15.1695 26.4313 16.7529 29.3228L17.0092 29.7954H25.4958L25.7521 29.3228C27.3298 26.4313 28.0645 21.5033 27.3525 18.5611ZM23.525 5.32412C23.6219 6.93303 22.608 8.09753 22.46 9.99897H20.0336C19.8855 8.0919 18.866 6.93866 18.9685 5.32412C19.1735 1.94314 23.32 1.94314 23.525 5.32412ZM24.3851 27.9952H18.1084C16.9124 25.4524 16.3428 21.3176 16.9124 18.9774C17.5218 16.4571 19.2988 14.6457 19.8798 11.7935H22.6137C23.1947 14.6457 24.9718 16.4571 25.5812 18.9774C26.1451 21.3233 25.5755 25.4524 24.3851 27.9952ZM9.70162 10.8147C9.51366 8.86261 10.9091 7.5856 10.7667 5.22286C10.6186 2.78136 8.89283 1.0093 6.66582 1.00367C4.43881 1.00367 2.71871 2.78136 2.56493 5.22286C2.41684 7.5856 3.81798 8.86261 3.63002 10.8147C3.36802 13.5543 1.29479 15.512 0.560047 18.5667C-0.151914 21.5089 0.582829 26.4425 2.16623 29.3341L2.42254 29.8066H10.9091L11.1654 29.3341C12.7488 26.4425 13.4836 21.5145 12.7716 18.5667C12.0369 15.512 9.96362 13.5487 9.70162 10.8147ZM8.94409 5.32974C9.04092 6.94428 8.02709 8.0919 7.879 9.99897H5.45264C5.30455 8.0919 4.28502 6.94428 4.38755 5.32974C4.59259 1.94877 8.73905 1.94877 8.94409 5.32974ZM9.80414 28.0008H3.5275C2.3314 25.4581 1.76184 21.3233 2.3314 18.983C2.94084 16.4628 4.72359 14.6513 5.29886 11.7992H8.03278C8.61374 14.6513 10.3908 16.4628 11.0002 18.983C11.5698 21.3233 11.0002 25.4581 9.80414 28.0008Z" fill="#FCFCFC"/>
</svg>
