<svg width="28" height="23" viewBox="0 0 28 23" fill="none" xmlns="http://www.w3.org/2000/svg">
<path d="M27.3858 11.4205L22.7278 3.99655C22.5924 3.79658 22.375 3.69617 22.1575 3.69617C21.9401 3.69617 21.7227 3.79658 21.5873 3.99655L16.9293 11.4205C16.764 11.6643 16.6691 11.9571 16.6939 12.2491C16.9276 15.0196 19.2846 17.1965 22.1575 17.1965C25.0305 17.1965 27.3875 15.0196 27.6212 12.2491C27.646 11.9571 27.5511 11.6643 27.3858 11.4205ZM22.1575 15.8465C20.3815 15.8465 18.845 14.7019 18.2799 13.1464H26.0198C25.4466 14.7171 23.9208 15.8465 22.1575 15.8465ZM18.3017 11.7964L22.1593 5.64697L26.0437 11.7964H18.3017ZM23.1827 21.2466H14.6398V6.30089C15.5919 6.05747 16.336 5.32507 16.5884 4.38722L22.9226 2.29382C23.1015 2.23475 23.1981 2.04322 23.1383 1.86687L22.9213 1.22687C22.8615 1.0501 22.6676 0.954749 22.489 1.01381L16.5765 2.96757C16.2531 1.83269 15.2087 0.996094 13.9563 0.996094C12.4464 0.996094 11.2226 2.2048 11.2226 3.69617C11.2226 4.04254 11.2939 4.37034 11.4165 4.67283L4.99011 6.79661C4.81114 6.85567 4.7146 7.04721 4.7744 7.22356L4.99139 7.86356C5.05119 8.04033 5.24512 8.13568 5.42367 8.07661L12.2772 5.81193C12.5685 6.03806 12.9039 6.20597 13.2733 6.30047V22.2592C13.2733 22.4456 13.4263 22.5967 13.6151 22.5967H23.1831C23.3719 22.5967 23.5248 22.4456 23.5248 22.2592V21.5842C23.5244 21.3977 23.3715 21.2466 23.1827 21.2466ZM12.5895 3.69617C12.5895 2.95196 13.2029 2.34613 13.9563 2.34613C14.7098 2.34613 15.3232 2.95196 15.3232 3.69617C15.3232 4.44037 14.7098 5.0462 13.9563 5.0462C13.2029 5.0462 12.5895 4.44037 12.5895 3.69617ZM6.32537 9.3967C6.18997 9.1963 5.97255 9.09631 5.75513 9.09631C5.53771 9.09631 5.3203 9.19672 5.18489 9.3967L0.526861 16.8206C0.361555 17.0645 0.266728 17.3573 0.291503 17.6492C0.525152 20.4197 2.88215 22.5967 5.75513 22.5967C8.62812 22.5967 10.9851 20.4197 11.2188 17.6492C11.2435 17.3573 11.1487 17.0645 10.9834 16.8206L6.32537 9.3967ZM5.75513 21.2466C3.97906 21.2466 2.44261 20.1021 1.8775 18.5466H9.61739C9.04416 20.1173 7.51839 21.2466 5.75513 21.2466ZM1.89928 17.1965L5.75684 11.0471L9.64131 17.1965H1.89928Z" fill="white"/>
</svg>
